<svg xmlns="http://www.w3.org/2000/svg" viewBox="0 0 420 205" width="420" height="205">
  <!-- Generated from Natural Earth 110m land, public domain. -->
  <g fill="#ffffff">
  <circle cx="114.8" cy="132.2" r="1.25"/>
  <circle cx="118.5" cy="132.2" r="1.25"/>
  <circle cx="122.3" cy="132.2" r="1.25"/>
  <circle cx="126.0" cy="132.2" r="1.25"/>
  <circle cx="129.7" cy="132.2" r="1.25"/>
  <circle cx="133.5" cy="132.2" r="1.25"/>
  <circle cx="137.2" cy="132.2" r="1.25"/>
  <circle cx="120.4" cy="134.7" r="1.25"/>
  <circle cx="124.1" cy="134.7" r="1.25"/>
  <circle cx="127.9" cy="134.7" r="1.25"/>
  <circle cx="131.6" cy="134.7" r="1.25"/>
  <circle cx="135.3" cy="134.7" r="1.25"/>
  <circle cx="139.1" cy="134.7" r="1.25"/>
  <circle cx="142.8" cy="134.7" r="1.25"/>
  <circle cx="146.5" cy="134.7" r="1.25"/>
  <circle cx="118.5" cy="137.3" r="1.25"/>
  <circle cx="122.3" cy="137.3" r="1.25"/>
  <circle cx="126.0" cy="137.3" r="1.25"/>
  <circle cx="129.7" cy="137.3" r="1.25"/>
  <circle cx="133.5" cy="137.3" r="1.25"/>
  <circle cx="137.2" cy="137.3" r="1.25"/>
  <circle cx="140.9" cy="137.3" r="1.25"/>
  <circle cx="144.7" cy="137.3" r="1.25"/>
  <circle cx="148.4" cy="137.3" r="1.25"/>
  <circle cx="116.7" cy="139.9" r="1.25"/>
  <circle cx="120.4" cy="139.9" r="1.25"/>
  <circle cx="124.1" cy="139.9" r="1.25"/>
  <circle cx="127.9" cy="139.9" r="1.25"/>
  <circle cx="131.6" cy="139.9" r="1.25"/>
  <circle cx="135.3" cy="139.9" r="1.25"/>
  <circle cx="139.1" cy="139.9" r="1.25"/>
  <circle cx="142.8" cy="139.9" r="1.25"/>
  <circle cx="146.5" cy="139.9" r="1.25"/>
  <circle cx="150.3" cy="139.9" r="1.25"/>
  <circle cx="118.5" cy="142.4" r="1.25"/>
  <circle cx="122.3" cy="142.4" r="1.25"/>
  <circle cx="126.0" cy="142.4" r="1.25"/>
  <circle cx="129.7" cy="142.4" r="1.25"/>
  <circle cx="133.5" cy="142.4" r="1.25"/>
  <circle cx="137.2" cy="142.4" r="1.25"/>
  <circle cx="140.9" cy="142.4" r="1.25"/>
  <circle cx="144.7" cy="142.4" r="1.25"/>
  <circle cx="148.4" cy="142.4" r="1.25"/>
  <circle cx="152.1" cy="142.4" r="1.25"/>
  <circle cx="155.9" cy="142.4" r="1.25"/>
  <circle cx="159.6" cy="142.4" r="1.25"/>
  <circle cx="163.3" cy="142.4" r="1.25"/>
  <circle cx="116.7" cy="145.0" r="1.25"/>
  <circle cx="120.4" cy="145.0" r="1.25"/>
  <circle cx="124.1" cy="145.0" r="1.25"/>
  <circle cx="127.9" cy="145.0" r="1.25"/>
  <circle cx="131.6" cy="145.0" r="1.25"/>
  <circle cx="135.3" cy="145.0" r="1.25"/>
  <circle cx="139.1" cy="145.0" r="1.25"/>
  <circle cx="142.8" cy="145.0" r="1.25"/>
  <circle cx="146.5" cy="145.0" r="1.25"/>
  <circle cx="150.3" cy="145.0" r="1.25"/>
  <circle cx="154.0" cy="145.0" r="1.25"/>
  <circle cx="157.7" cy="145.0" r="1.25"/>
  <circle cx="161.5" cy="145.0" r="1.25"/>
  <circle cx="165.2" cy="145.0" r="1.25"/>
  <circle cx="168.9" cy="145.0" r="1.25"/>
  <circle cx="122.3" cy="147.6" r="1.25"/>
  <circle cx="126.0" cy="147.6" r="1.25"/>
  <circle cx="129.7" cy="147.6" r="1.25"/>
  <circle cx="133.5" cy="147.6" r="1.25"/>
  <circle cx="137.2" cy="147.6" r="1.25"/>
  <circle cx="140.9" cy="147.6" r="1.25"/>
  <circle cx="144.7" cy="147.6" r="1.25"/>
  <circle cx="148.4" cy="147.6" r="1.25"/>
  <circle cx="152.1" cy="147.6" r="1.25"/>
  <circle cx="155.9" cy="147.6" r="1.25"/>
  <circle cx="159.6" cy="147.6" r="1.25"/>
  <circle cx="163.3" cy="147.6" r="1.25"/>
  <circle cx="167.1" cy="147.6" r="1.25"/>
  <circle cx="124.1" cy="150.2" r="1.25"/>
  <circle cx="127.9" cy="150.2" r="1.25"/>
  <circle cx="131.6" cy="150.2" r="1.25"/>
  <circle cx="135.3" cy="150.2" r="1.25"/>
  <circle cx="139.1" cy="150.2" r="1.25"/>
  <circle cx="142.8" cy="150.2" r="1.25"/>
  <circle cx="146.5" cy="150.2" r="1.25"/>
  <circle cx="150.3" cy="150.2" r="1.25"/>
  <circle cx="154.0" cy="150.2" r="1.25"/>
  <circle cx="157.7" cy="150.2" r="1.25"/>
  <circle cx="161.5" cy="150.2" r="1.25"/>
  <circle cx="165.2" cy="150.2" r="1.25"/>
  <circle cx="126.0" cy="152.8" r="1.25"/>
  <circle cx="129.7" cy="152.8" r="1.25"/>
  <circle cx="133.5" cy="152.8" r="1.25"/>
  <circle cx="137.2" cy="152.8" r="1.25"/>
  <circle cx="140.9" cy="152.8" r="1.25"/>
  <circle cx="144.7" cy="152.8" r="1.25"/>
  <circle cx="148.4" cy="152.8" r="1.25"/>
  <circle cx="152.1" cy="152.8" r="1.25"/>
  <circle cx="155.9" cy="152.8" r="1.25"/>
  <circle cx="159.6" cy="152.8" r="1.25"/>
  <circle cx="163.3" cy="152.8" r="1.25"/>
  <circle cx="131.6" cy="155.5" r="1.25"/>
  <circle cx="135.3" cy="155.5" r="1.25"/>
  <circle cx="139.1" cy="155.5" r="1.25"/>
  <circle cx="142.8" cy="155.5" r="1.25"/>
  <circle cx="146.5" cy="155.5" r="1.25"/>
  <circle cx="150.3" cy="155.5" r="1.25"/>
  <circle cx="154.0" cy="155.5" r="1.25"/>
  <circle cx="157.7" cy="155.5" r="1.25"/>
  <circle cx="161.5" cy="155.5" r="1.25"/>
  <circle cx="129.7" cy="158.2" r="1.25"/>
  <circle cx="133.5" cy="158.2" r="1.25"/>
  <circle cx="137.2" cy="158.2" r="1.25"/>
  <circle cx="140.9" cy="158.2" r="1.25"/>
  <circle cx="144.7" cy="158.2" r="1.25"/>
  <circle cx="148.4" cy="158.2" r="1.25"/>
  <circle cx="152.1" cy="158.2" r="1.25"/>
  <circle cx="155.9" cy="158.2" r="1.25"/>
  <circle cx="159.6" cy="158.2" r="1.25"/>
  <circle cx="127.9" cy="161.0" r="1.25"/>
  <circle cx="131.6" cy="161.0" r="1.25"/>
  <circle cx="135.3" cy="161.0" r="1.25"/>
  <circle cx="139.1" cy="161.0" r="1.25"/>
  <circle cx="142.8" cy="161.0" r="1.25"/>
  <circle cx="146.5" cy="161.0" r="1.25"/>
  <circle cx="150.3" cy="161.0" r="1.25"/>
  <circle cx="129.7" cy="163.9" r="1.25"/>
  <circle cx="133.5" cy="163.9" r="1.25"/>
  <circle cx="137.2" cy="163.9" r="1.25"/>
  <circle cx="140.9" cy="163.9" r="1.25"/>
  <circle cx="144.7" cy="163.9" r="1.25"/>
  <circle cx="148.4" cy="163.9" r="1.25"/>
  <circle cx="152.1" cy="163.9" r="1.25"/>
  <circle cx="127.9" cy="166.9" r="1.25"/>
  <circle cx="131.6" cy="166.9" r="1.25"/>
  <circle cx="135.3" cy="166.9" r="1.25"/>
  <circle cx="139.1" cy="166.9" r="1.25"/>
  <circle cx="142.8" cy="166.9" r="1.25"/>
  <circle cx="146.5" cy="166.9" r="1.25"/>
  <circle cx="126.0" cy="169.9" r="1.25"/>
  <circle cx="129.7" cy="169.9" r="1.25"/>
  <circle cx="133.5" cy="169.9" r="1.25"/>
  <circle cx="137.2" cy="169.9" r="1.25"/>
  <circle cx="140.9" cy="169.9" r="1.25"/>
  <circle cx="144.7" cy="169.9" r="1.25"/>
  <circle cx="127.9" cy="173.1" r="1.25"/>
  <circle cx="131.6" cy="173.1" r="1.25"/>
  <circle cx="135.3" cy="173.1" r="1.25"/>
  <circle cx="139.1" cy="173.1" r="1.25"/>
  <circle cx="142.8" cy="173.1" r="1.25"/>
  <circle cx="126.0" cy="176.4" r="1.25"/>
  <circle cx="129.7" cy="176.4" r="1.25"/>
  <circle cx="133.5" cy="176.4" r="1.25"/>
  <circle cx="127.9" cy="179.9" r="1.25"/>
  <circle cx="131.6" cy="179.9" r="1.25"/>
  <circle cx="126.0" cy="183.5" r="1.25"/>
  <circle cx="129.7" cy="183.5" r="1.25"/>
  <circle cx="124.1" cy="187.4" r="1.25"/>
  <circle cx="127.9" cy="187.4" r="1.25"/>
  <circle cx="126.0" cy="191.5" r="1.25"/>
  <circle cx="129.7" cy="191.5" r="1.25"/>
  </g>
</svg>
